<svg xmlns="http://www.w3.org/2000/svg" id="Layer_1" viewBox="0 0 64 64"><g><path d="m53.1 46.5 1.1-1.1c.4-.4.4-1 0-1.4s-1-.4-1.4 0l-1.8 1.8-.2.2-2.7-2.7c4.9-7.1 4.2-16.9-2.2-23.2-3.5-3.5-8-5.4-12.9-5.4s-9.5 1.9-12.9 5.4c-3.5 3.5-5.4 8-5.4 12.9s1.9 9.5 5.4 12.9c3.6 3.6 8.3 5.3 12.9 5.3 3.6 0 7.2-1.1 10.3-3.2l2.7 2.7-.2.3-1.7 1.7c-.4.4-.4 1 0 1.4.2.2.4.3.7.3.2 0 .5-.1.7-.3l1.1-1.1 9.6 9.6c.9.9 2 1.4 3.3 1.4 1.2 0 2.4-.5 3.3-1.4 1.8-1.8 1.8-4.7 0-6.6zm-11.4-4.8c-4.8 4.8-12.5 4.8-17.3 0-2.3-2.3-3.6-5.4-3.6-8.7s1.3-6.3 3.6-8.7c2.3-2.3 5.4-3.6 8.7-3.6s6.3 1.3 8.7 3.6c4.6 4.8 4.6 12.6-.1 17.4m3.2 5.2c.4-.3.7-.6 1.1-1 .3-.3.7-.7 1-1.1l2.5 2.5-2 2z" fill="#0079be"></path><g fill="#384450"><path d="m33 30.9c1.8 0 3.3-1.5 3.3-3.3s-1.5-3.3-3.3-3.3-3.3 1.5-3.3 3.3 1.5 3.3 3.3 3.3"></path><path d="m33 32.4c-3.4 0-6.2 2.8-6.2 6.2v1h12.4v-1c0-3.4-2.8-6.2-6.2-6.2"></path><path d="m22 11c0-6.1-5-11-11-11s-11 4.9-11 11c0 6 4.9 11 11 11s11-5 11-11m-20.1 0c0-5 4.1-9 9-9 5 0 9 4.1 9 9 0 5-4.1 9-9 9s-9-4-9-9"></path><path d="m53 22c6.1 0 11-4.9 11-11s-4.9-11-11-11c-6 0-11 4.9-11 11 0 6 5 11 11 11m0-20.1c5 0 9 4.1 9 9 0 5-4.1 9-9 9s-9-4.1-9-9 4-9 9-9"></path><path d="m12.2 29.1c0-2.1-1.7-3.9-3.9-3.9s-3.8 1.8-3.8 3.9 1.7 3.9 3.8 3.9 3.9-1.8 3.9-3.9m-5.8 0c0-1.1.9-1.9 1.9-1.9 1.1 0 1.9.9 1.9 1.9 0 1.1-.9 1.9-1.9 1.9s-1.9-.8-1.9-1.9"></path><path d="m52.7 37.6c0 2.1 1.7 3.9 3.9 3.9 2.1 0 3.9-1.7 3.9-3.9 0-2.1-1.7-3.9-3.9-3.9s-3.9 1.7-3.9 3.9m5.8 0c0 1.1-.9 1.9-1.9 1.9-1.1 0-1.9-.9-1.9-1.9 0-1.1.9-1.9 1.9-1.9 1-.1 1.9.8 1.9 1.9"></path><path d="m11.2 47.5c-3.1 0-5.6 2.5-5.6 5.6s2.5 5.6 5.6 5.6 5.6-2.5 5.6-5.6-2.5-5.6-5.6-5.6"></path><path d="m53 10.1c1.4 0 2.6-1.2 2.6-2.6s-1.2-2.5-2.6-2.5-2.6 1.2-2.6 2.6 1.2 2.5 2.6 2.5"></path><path d="m57.9 16.2c0-2.7-2.2-4.9-4.9-4.9s-4.9 2.2-4.9 4.9v.8h9.8z"></path><path d="m11 10.1c1.4 0 2.6-1.2 2.6-2.6s-1.2-2.5-2.6-2.5-2.6 1.1-2.6 2.5c0 1.5 1.2 2.6 2.6 2.6"></path><path d="m15.9 16.2c0-2.7-2.2-4.9-4.9-4.9s-4.9 2.2-4.9 4.9v.8h9.8z"></path></g></g></svg>